<svg id="Layer_1" data-name="Layer 1" xmlns="http://www.w3.org/2000/svg" viewBox="0 0 359 289"><defs><style>.cls-1{fill:#333;}.cls-2{opacity:0.8;}</style></defs><title>butterflies_01</title><path class="cls-1" d="M180.1,199.56c1.21-19.2,1.27-50.37.48-58.56-.75-7.7-3.17-.85-4.38,18.34-1.5,23.69-1.21,41.92-.13,53S178.56,223.87,180.1,199.56Z"/><path class="cls-1" d="M181.89,199.56c-1.21-19.2-1.27-50.37-.48-58.56.75-7.7,3.17-.85,4.38,18.34,1.5,23.69,1.21,41.92.13,53S183.43,223.87,181.89,199.56Z"/><g class="cls-2"><path d="M179,92.52c1.84,20.51,2.46,59.17,1.6,71.6-.8,11.68-3.94,9.95-5.78-10.56a434.08,434.08,0,0,1-1.07-65.69C174.93,71,176.69,66.56,179,92.52Z"/></g><g class="cls-2"><path d="M183,92.52c-1.84,20.51-2.46,59.17-1.6,71.6.8,11.68,3.94,9.95,5.78-10.56a434.08,434.08,0,0,0,1.07-65.69C187.07,71,185.31,66.56,183,92.52Z"/></g></svg>