<svg id="Layer_1" data-name="Layer 1" xmlns="http://www.w3.org/2000/svg" viewBox="0 0 359 289"><defs><style>.cls-1{fill:#333;}.cls-2{opacity:0.8;}.cls-3{fill:none;stroke:#000;stroke-miterlimit:10;stroke-width:1.5px;}</style></defs><title>butterflies_01</title><path class="cls-1" d="M169.53,199.56C185,180.37,185.8,149.2,175.65,141c-9.54-7.7-40.45-.85-55.95,18.34-19.11,23.69-15.41,41.92-1.64,53S149.92,223.87,169.53,199.56Z"/><path class="cls-1" d="M192.38,199.56c-15.49-19.2-16.26-50.37-6.11-58.56,9.54-7.7,40.45-.85,55.95,18.34,19.11,23.69,15.41,41.92,1.64,53S212,223.87,192.38,199.56Z"/><g class="cls-2"><path d="M155.79,92.52c23.52,20.51,31.32,59.17,20.48,71.6-10.19,11.68-50.21,9.95-73.72-10.56-29-25.31-28.4-48.83-13.7-65.69S126,66.56,155.79,92.52Z"/></g><g class="cls-2"><path d="M206.21,92.52c-23.52,20.51-31.32,59.17-20.48,71.6,10.19,11.68,50.21,9.95,73.72-10.56,29-25.31,28.4-48.83,13.7-65.69S236,66.56,206.21,92.52Z"/></g><path class="cls-3" d="M160.55,83a58.73,58.73,0,0,1,20.31,26,60.65,60.65,0,0,1,20.58-26"/></svg>