<svg id="Layer_1" data-name="Layer 1" xmlns="http://www.w3.org/2000/svg" viewBox="0 0 359 289"><defs><style>.cls-1{fill:#333;}.cls-2{opacity:0.8;}</style></defs><title>butterflies_01</title><path class="cls-1" d="M178.42,199.56c3.49-19.2,3.66-50.37,1.38-58.56-2.15-7.7-9.12-.85-12.61,18.34-4.31,23.69-3.47,41.92-.37,53S174,223.87,178.42,199.56Z"/><path class="cls-1" d="M183.56,199.56c-3.49-19.2-3.66-50.37-1.38-58.56,2.15-7.7,9.12-.85,12.61,18.34,4.31,23.69,3.47,41.92.37,53S188,223.87,183.56,199.56Z"/><g class="cls-2"><path d="M175.32,92.52c5.3,20.51,7.06,59.17,4.61,71.6-2.3,11.68-11.31,9.95-16.61-10.56-6.54-25.31-6.4-48.83-3.09-65.69S168.61,66.56,175.32,92.52Z"/></g><g class="cls-2"><path d="M186.68,92.52c-5.3,20.51-7.06,59.17-4.61,71.6,2.3,11.68,11.31,9.95,16.61-10.56,6.54-25.31,6.4-48.83,3.09-65.69S193.39,66.56,186.68,92.52Z"/></g></svg>