<svg id="Layer_1" data-name="Layer 1" xmlns="http://www.w3.org/2000/svg" viewBox="0 0 359 289"><defs><style>.cls-1{fill:#333;}.cls-2{opacity:0.8;}.cls-3{fill:none;stroke:#000;stroke-miterlimit:10;stroke-width:1.5px;}</style></defs><title>butterflies_01</title><path class="cls-1" d="M175.72,199.56c7.13-19.2,7.49-50.37,2.81-58.56-4.39-7.7-18.63-.85-25.76,18.34-8.8,23.69-7.09,41.92-.76,53S166.69,223.87,175.72,199.56Z"/><path class="cls-1" d="M186.24,199.56c-7.13-19.2-7.49-50.37-2.81-58.56,4.39-7.7,18.63-.85,25.76,18.34,8.8,23.69,7.09,41.92.76,53S195.27,223.87,186.24,199.56Z"/><g class="cls-2"><path d="M169.39,92.52c10.83,20.51,14.42,59.17,9.43,71.6-4.69,11.68-23.12,9.95-33.95-10.56-13.36-25.31-13.08-48.83-6.31-65.69S155.68,66.56,169.39,92.52Z"/></g><g class="cls-2"><path d="M192.61,92.52c-10.83,20.51-14.42,59.17-9.43,71.6,4.69,11.68,23.12,9.95,33.95-10.56,13.36-25.31,13.08-48.83,6.31-65.69S206.32,66.56,192.61,92.52Z"/></g><path class="cls-3" d="M160.55,83a58.73,58.73,0,0,1,20.31,26,60.65,60.65,0,0,1,20.58-26"/></svg>