<svg id="Layer_1" data-name="Layer 1" xmlns="http://www.w3.org/2000/svg" viewBox="0 0 359 289"><defs><style>.cls-1{fill:#333;}.cls-2{opacity:0.8;}.cls-3{fill:none;stroke:#000;stroke-miterlimit:10;stroke-width:1.5px;}</style></defs><title>butterflies_01</title><path class="cls-1" d="M172.24,199.56c11.84-19.2,12.43-50.37,4.67-58.56-7.29-7.7-30.91-.85-42.75,18.34-14.61,23.69-11.77,41.92-1.26,53S157.25,223.87,172.24,199.56Z"/><path class="cls-1" d="M189.7,199.56C177.86,180.37,177.27,149.2,185,141c7.29-7.7,30.91-.85,42.75,18.34,14.61,23.69,11.77,41.92,1.26,53S204.68,223.87,189.7,199.56Z"/><g class="cls-2"><path d="M161.73,92.52c18,20.51,23.94,59.17,15.65,71.6C169.6,175.81,139,174.07,121,153.56c-22.17-25.31-21.7-48.83-10.47-65.69S139,66.56,161.73,92.52Z"/></g><g class="cls-2"><path d="M200.27,92.52c-18,20.51-23.94,59.17-15.65,71.6,7.79,11.68,38.37,9.95,56.34-10.56,22.17-25.31,21.7-48.83,10.47-65.69S223,66.56,200.27,92.52Z"/></g><path class="cls-3" d="M160.55,83a58.73,58.73,0,0,1,20.31,26,60.65,60.65,0,0,1,20.58-26"/></svg>